<svg width="31" height="31" viewBox="0 0 31 31" fill="none" xmlns="http://www.w3.org/2000/svg">
<g clip-path="url(#clip0_11_440)">
<path d="M15.4998 5.8125C9.0415 5.8125 3.52609 9.82958 1.2915 15.5C3.52609 21.1704 9.0415 25.1875 15.4998 25.1875C21.9582 25.1875 27.4736 21.1704 29.7082 15.5C27.4736 9.82958 21.9582 5.8125 15.4998 5.8125ZM15.4998 21.9583C11.9348 21.9583 9.0415 19.065 9.0415 15.5C9.0415 11.935 11.9348 9.04167 15.4998 9.04167C19.0648 9.04167 21.9582 11.935 21.9582 15.5C21.9582 19.065 19.0648 21.9583 15.4998 21.9583ZM15.4998 11.625C13.3557 11.625 11.6248 13.3558 11.6248 15.5C11.6248 17.6442 13.3557 19.375 15.4998 19.375C17.644 19.375 19.3748 17.6442 19.3748 15.5C19.3748 13.3558 17.644 11.625 15.4998 11.625Z" fill="black"/>
</g>
<defs>
<clipPath id="clip0_11_440">
<rect width="31" height="31" fill="white"/>
</clipPath>
</defs>
</svg>
